<?xml version="1.0"?>
<svg xmlns="http://www.w3.org/2000/svg" xmlns:xlink="http://www.w3.org/1999/xlink" class="" id="Capa_1" style="enable-background:new 0 0 53 53;" viewBox="0 0 53 53" x="0px" y="0px" width="512px" height="512px" version="1.1" xml:space="preserve"><g><path style="fill:#E7ECED;" d="M 18.613 41.552 l -7.907 4.313 c -0.464 0.253 -0.881 0.564 -1.269 0.903 C 14.047 50.655 19.998 53 26.5 53 c 6.454 0 12.367 -2.31 16.964 -6.144 c -0.424 -0.358 -0.884 -0.68 -1.394 -0.934 l -8.467 -4.233 c -1.094 -0.547 -1.785 -1.665 -1.785 -2.888 v -3.322 c 0.238 -0.271 0.51 -0.619 0.801 -1.03 c 1.154 -1.63 2.027 -3.423 2.632 -5.304 c 1.086 -0.335 1.886 -1.338 1.886 -2.53 v -3.546 c 0 -0.78 -0.347 -1.477 -0.886 -1.965 v -5.126 c 0 0 1.053 -7.977 -9.75 -7.977 s -9.75 7.977 -9.75 7.977 v 5.126 c -0.54 0.488 -0.886 1.185 -0.886 1.965 v 3.546 c 0 0.934 0.491 1.756 1.226 2.231 c 0.886 3.857 3.206 6.633 3.206 6.633 v 3.24 C 20.296 39.899 19.65 40.986 18.613 41.552 Z" data-original="#E7ECED"/><g>
	<path class="active-path" style="fill:#A7A9AA" d="M 26.953 0.004 C 12.32 -0.246 0.254 11.414 0.004 26.047 C -0.138 34.344 3.56 41.801 9.448 46.76 c 0.385 -0.336 0.798 -0.644 1.257 -0.894 l 7.907 -4.313 c 1.037 -0.566 1.683 -1.653 1.683 -2.835 v -3.24 c 0 0 -2.321 -2.776 -3.206 -6.633 c -0.734 -0.475 -1.226 -1.296 -1.226 -2.231 v -3.546 c 0 -0.78 0.347 -1.477 0.886 -1.965 v -5.126 c 0 0 -1.053 -7.977 9.75 -7.977 s 9.75 7.977 9.75 7.977 v 5.126 c 0.54 0.488 0.886 1.185 0.886 1.965 v 3.546 c 0 1.192 -0.8 2.195 -1.886 2.53 c -0.605 1.881 -1.478 3.674 -2.632 5.304 c -0.291 0.411 -0.563 0.759 -0.801 1.03 V 38.8 c 0 1.223 0.691 2.342 1.785 2.888 l 8.467 4.233 c 0.508 0.254 0.967 0.575 1.39 0.932 c 5.71 -4.762 9.399 -11.882 9.536 -19.9 C 53.246 12.32 41.587 0.254 26.953 0.004 Z" data-original="#556080" data-old_color="#2196F3"/>
</g></g> </svg>
